<svg id="Logo" xmlns="http://www.w3.org/2000/svg" xmlns:xlink="http://www.w3.org/1999/xlink" viewBox="0 0 1590.82 1024.3"><defs><linearGradient id="linear-gradient" x1="333.63" y1="379.63" x2="744.15" y2="579.86" gradientUnits="userSpaceOnUse"><stop offset="0" stop-color="#1d1d1b"/><stop offset="0.05" stop-color="#21211f"/><stop offset="0.11" stop-color="#2e2e2c"/><stop offset="0.17" stop-color="#444442"/><stop offset="0.23" stop-color="#626260"/><stop offset="0.29" stop-color="#888887"/><stop offset="0.35" stop-color="#b8b8b7"/><stop offset="0.41" stop-color="#efefef"/><stop offset="0.43" stop-color="#fff"/><stop offset="0.48" stop-color="#dedede"/><stop offset="0.59" stop-color="#a4a4a3"/><stop offset="0.69" stop-color="#747472"/><stop offset="0.78" stop-color="#4e4e4c"/><stop offset="0.87" stop-color="#333331"/><stop offset="0.94" stop-color="#232321"/><stop offset="1" stop-color="#1d1d1b"/></linearGradient><linearGradient id="linear-gradient-2" x1="154.44" y1="724.2" x2="1012.42" y2="1142.66" xlink:href="#linear-gradient"/><linearGradient id="linear-gradient-3" x1="580.25" y1="-117.62" x2="1436.56" y2="300.04" xlink:href="#linear-gradient"/><linearGradient id="linear-gradient-4" x1="1037.38" y1="500.93" x2="1430.81" y2="692.82" xlink:href="#linear-gradient"/></defs><title>app-logo-silver</title><polygon points="394.2 259.66 310.33 427.4 472.76 427.4 310.33 764.64 472.76 764.64 644.74 427.4 816.19 427.4 900.32 259.66 394.2 259.66" style="stroke:#fff;stroke-miterlimit:10;stroke-width:14px;fill:url(#linear-gradient)"/><polygon points="1155.37 849.57 1071.51 1017.3 11.49 1017.3 98.01 849.57 1155.37 849.57" style="stroke:#fff;stroke-miterlimit:10;stroke-width:14px;fill:url(#linear-gradient-2)"/><polygon points="437.37 175.44 519.47 7 1579.49 7 1495.09 175.44 437.37 175.44" style="stroke:#fff;stroke-miterlimit:10;stroke-width:14px;fill:url(#linear-gradient-3)"/><path d="M1490.81,455.69c-3.27-16.71-13.75-66.58-57.33-110.14-44.48-44.47-96.2-55.12-114.65-58H1149l-253.79,505H1234.6c26-3.56,101.54-17.32,167.74-81,9.37-9,72.74-71.69,88.46-171.09C1493.71,522,1498.06,492.76,1490.81,455.69ZM1235,624.35h-86l86-168.66h83.89Z" transform="translate(-164.51 -27.85)" style="stroke:#fff;stroke-miterlimit:10;stroke-width:14px;fill:url(#linear-gradient-4)"/></svg>