<svg id="Logo" xmlns="http://www.w3.org/2000/svg" viewBox="0 0 1569.63 1011.3"><title>app-logo</title><polygon points="383.53 253.16 299.66 420.9 462.09 420.9 299.66 758.14 462.09 758.14 634.07 420.9 805.52 420.9 889.65 253.16 383.53 253.16" style="fill:#1d1d1b;stroke:#1d1d1b;stroke-miterlimit:10"/><polygon points="1144.71 843.07 1060.84 1010.8 0.82 1010.8 87.34 843.07 1144.71 843.07" style="fill:#1d1d1b;stroke:#1d1d1b;stroke-miterlimit:10"/><polygon points="426.7 168.94 508.8 0.5 1568.82 0.5 1484.42 168.94 426.7 168.94" style="fill:#1d1d1b;stroke:#1d1d1b;stroke-miterlimit:10"/><path d="M1490.81,455.69c-3.27-16.71-13.75-66.58-57.33-110.14-44.48-44.47-96.2-55.12-114.65-58H1149l-253.79,505H1234.6c26-3.56,101.54-17.32,167.74-81,9.37-9,72.74-71.69,88.46-171.09C1493.71,522,1498.06,492.76,1490.81,455.69ZM1235,624.35h-86l86-168.66h83.89Z" transform="translate(-175.18 -34.35)" style="fill:#1d1d1b;stroke:#1d1d1b;stroke-miterlimit:10"/></svg>